ffmpeg started on 2016-11-27 at 21:26:56
Report written to "Output/NVENCh264/results/ffmpeg/old_town_cross_2160p50llhp3000k.log"
Command line:
Tools/ffmpeg/ffmpeg -benchmark -y -i Input/y4m/old_town_cross_2160p50.y4m -c:v h264_nvenc -preset llhp -b:v 3000k -an Output/NVENCh264/encoded/old_town_cross_2160p50llhp3000k.mkv
ffmpeg version N-82227-gdb23fde Copyright (c) 2000-2016 the FFmpeg developers
  built with gcc 5.4.0 (Ubuntu 5.4.0-6ubuntu1~16.04.2) 20160609
  configuration: --prefix=/home/jaroslav/ffmpeg_build --pkg-config-flags=--static --extra-cflags=-I/home/jaroslav/ffmpeg_build/include --extra-ldflags=-L/home/jaroslav/ffmpeg_build/lib --bindir=/home/jaroslav/bin --enable-gpl --enable-libass --enable-libfdk-aac --enable-libfreetype --enable-libmp3lame --enable-libopus --enable-libtheora --enable-libvorbis --enable-libvpx --enable-libx264 --enable-libx265 --enable-nvenc --enable-libmfx --enable-libxvid --enable-libgsm --enable-libopencore-amrnb --enable-version3 --enable-nonfree
  libavutil      55. 35.100 / 55. 35.100
  libavcodec     57. 66.101 / 57. 66.101
  libavformat    57. 57.100 / 57. 57.100
  libavdevice    57.  2.100 / 57.  2.100
  libavfilter     6. 66.100 /  6. 66.100
  libswscale      4.  3.100 /  4.  3.100
  libswresample   2.  4.100 /  2.  4.100
  libpostproc    54.  2.100 / 54.  2.100
Input #0, yuv4mpegpipe, from 'Input/y4m/old_town_cross_2160p50.y4m':
  Duration: 00:00:10.00, start: 0.000000, bitrate: 4976642 kb/s
    Stream #0:0: Video: rawvideo (I420 / 0x30323449), yuv420p(progressive), 3840x2160, SAR 1:1 DAR 16:9, 50 fps, 50 tbr, 50 tbn, 50 tbc
[h264_nvenc @ 0x409d120] The variable bitrate rate-control requires the 'qmin' and/or 'qmax' option set.
Output #0, matroska, to 'Output/NVENCh264/encoded/old_town_cross_2160p50llhp3000k.mkv':
  Metadata:
    encoder         : Lavf57.57.100
    Stream #0:0: Video: h264 (h264_nvenc) (Main) (H264 / 0x34363248), yuv420p, 3840x2160 [SAR 1:1 DAR 16:9], q=-1--1, 3000 kb/s, 50 fps, 1k tbn, 50 tbc
    Metadata:
      encoder         : Lavc57.66.101 h264_nvenc
    Side data:
      cpb: bitrate max/min/avg: 0/0/3000000 buffer size: 6000000 vbv_delay: -1
Stream mapping:
  Stream #0:0 -> #0:0 (rawvideo (native) -> h264 (h264_nvenc))
Press [q] to stop, [?] for help
frame=    9 fps=0.0 q=0.0 size=       0kB time=00:00:00.00 bitrate=N/A speed=   0x    frame=   22 fps= 20 q=0.0 size=       0kB time=00:00:00.00 bitrate=N/A speed=   0x    frame=   40 fps= 25 q=48.0 size=       1kB time=00:00:00.18 bitrate=  33.0kbits/s speed=0.112x    frame=   58 fps= 27 q=49.0 size=       1kB time=00:00:00.54 bitrate=  11.0kbits/s speed=0.255x    frame=   76 fps= 29 q=49.0 size=       1kB time=00:00:00.90 bitrate=   6.6kbits/s speed=0.342x    frame=   94 fps= 30 q=38.0 size=       1kB time=00:00:01.26 bitrate=   4.7kbits/s speed= 0.4x    frame=  112 fps= 31 q=39.0 size=       1kB time=00:00:01.62 bitrate=   3.7kbits/s speed=0.442x    frame=  130 fps= 31 q=38.0 size=       1kB time=00:00:01.98 bitrate=   3.0kbits/s speed=0.474x    frame=  148 fps= 32 q=37.0 size=       1kB time=00:00:02.34 bitrate=   2.6kbits/s speed=0.499x    frame=  166 fps= 32 q=40.0 size=       1kB time=00:00:02.70 bitrate=   2.2kbits/s speed=0.519x    frame=  184 fps= 32 q=43.0 size=       1kB time=00:00:03.06 bitrate=   2.0kbits/s speed=0.535x    frame=  202 fps= 32 q=44.0 size=       1kB time=00:00:03.42 bitrate=   1.7kbits/s speed=0.549x    frame=  220 fps= 33 q=44.0 size=       1kB time=00:00:03.78 bitrate=   1.6kbits/s speed=0.561x    frame=  238 fps= 33 q=44.0 size=       1kB time=00:00:04.14 bitrate=   1.4kbits/s speed=0.571x    frame=  256 fps= 33 q=38.0 size=       1kB time=00:00:04.50 bitrate=   1.3kbits/s speed=0.579x    frame=  274 fps= 33 q=39.0 size=       1kB time=00:00:04.86 bitrate=   1.2kbits/s speed=0.587x    frame=  291 fps= 33 q=44.0 size=    1760kB time=00:00:05.20 bitrate=2772.7kbits/s speed=0.591x    frame=  307 fps= 33 q=49.0 size=    1760kB time=00:00:05.52 bitrate=2612.0kbits/s speed=0.592x    frame=  323 fps= 33 q=43.0 size=    1760kB time=00:00:05.84 bitrate=2468.9kbits/s speed=0.594x    frame=  339 fps= 33 q=44.0 size=    1760kB time=00:00:06.16 bitrate=2340.6kbits/s speed=0.595x    frame=  355 fps= 33 q=38.0 size=    1760kB time=00:00:06.48 bitrate=2225.1kbits/s speed=0.596x    frame=  371 fps= 33 q=41.0 size=    1760kB time=00:00:06.80 bitrate=2120.4kbits/s speed=0.597x    frame=  387 fps= 32 q=40.0 size=    1760kB time=00:00:07.12 bitrate=2025.1kbits/s speed=0.598x    frame=  401 fps= 32 q=44.0 size=    1760kB time=00:00:07.40 bitrate=1948.5kbits/s speed=0.587x    frame=  417 fps= 32 q=36.0 size=    1760kB time=00:00:07.72 bitrate=1867.7kbits/s speed=0.585x    frame=  427 fps= 31 q=46.0 size=    1760kB time=00:00:07.92 bitrate=1820.6kbits/s speed=0.577x    frame=  443 fps= 31 q=46.0 size=    1760kB time=00:00:08.24 bitrate=1749.9kbits/s speed=0.579x    frame=  459 fps= 31 q=44.0 size=    1760kB time=00:00:08.56 bitrate=1684.5kbits/s speed=0.58x    frame=  475 fps= 31 q=44.0 size=    1760kB time=00:00:08.88 bitrate=1623.8kbits/s speed=0.581x    frame=  491 fps= 31 q=39.0 size=    1760kB time=00:00:09.20 bitrate=1567.3kbits/s speed=0.583x    frame=  500 fps= 31 q=46.0 Lsize=    3595kB time=00:00:09.98 bitrate=2950.8kbits/s speed=0.618x    
video:3591kB audio:0kB subtitle:0kB other streams:0kB global headers:0kB muxing overhead: 0.121429%
bench: utime=1.080s
bench: maxrss=1420540kB
